ISO-10303-21;
HEADER;
/* Generated by software containing ST-Developer
 * from STEP Tools, Inc. (www.steptools.com) 
 */

FILE_DESCRIPTION(
/* description */ (''),
/* implementation_level */ '2;1');

FILE_NAME(
/* name */ 'femur.step',
/* time_stamp */ '2026-08-23T17:02:17+05:30',
/* author */ (''),
/* organization */ (''),
/* preprocessor_version */ 'ST-DEVELOPER v20.1',
/* originating_system */ 'Autodesk Translation Framework v15.8.0.0',
/* authorisation */ '');

FILE_SCHEMA (('AUTOMOTIVE_DESIGN { 1 0 10303 214 3 1 1 }'));
ENDSEC;

DATA;
#10=MECHANICAL_DESIGN_GEOMETRIC_PRESENTATION_REPRESENTATION('',(#13),#1539);
#11=SHAPE_REPRESENTATION_RELATIONSHIP('SRR','None',#1546,#12);
#12=ADVANCED_BREP_SHAPE_REPRESENTATION('',(#14),#1538);
#13=STYLED_ITEM('',(#1555),#14);
#14=MANIFOLD_SOLID_BREP('Body1',#939);
#15=FACE_BOUND('',#122,.T.);
#16=FACE_BOUND('',#133,.T.);
#17=FACE_BOUND('',#141,.T.);
#18=FACE_BOUND('',#142,.T.);
#19=FACE_BOUND('',#143,.T.);
#20=FACE_BOUND('',#144,.T.);
#21=FACE_BOUND('',#145,.T.);
#22=FACE_BOUND('',#148,.T.);
#23=FACE_BOUND('',#149,.T.);
#24=FACE_BOUND('',#150,.T.);
#25=FACE_BOUND('',#151,.T.);
#26=FACE_BOUND('',#152,.T.);
#27=FACE_BOUND('',#166,.T.);
#28=FACE_BOUND('',#167,.T.);
#29=FACE_BOUND('',#168,.T.);
#30=FACE_BOUND('',#169,.T.);
#31=FACE_BOUND('',#170,.T.);
#32=FACE_BOUND('',#173,.T.);
#33=FACE_BOUND('',#177,.T.);
#34=FACE_BOUND('',#182,.T.);
#35=FACE_BOUND('',#183,.T.);
#36=FACE_BOUND('',#184,.T.);
#37=FACE_BOUND('',#185,.T.);
#38=FACE_BOUND('',#186,.T.);
#39=FACE_BOUND('',#191,.T.);
#40=PLANE('',#956);
#41=PLANE('',#960);
#42=PLANE('',#961);
#43=PLANE('',#962);
#44=PLANE('',#963);
#45=PLANE('',#964);
#46=PLANE('',#965);
#47=PLANE('',#966);
#48=PLANE('',#967);
#49=PLANE('',#968);
#50=PLANE('',#969);
#51=PLANE('',#970);
#52=PLANE('',#971);
#53=PLANE('',#972);
#54=PLANE('',#973);
#55=PLANE('',#977);
#56=PLANE('',#986);
#57=PLANE('',#1012);
#58=PLANE('',#1013);
#59=PLANE('',#1014);
#60=PLANE('',#1015);
#61=PLANE('',#1016);
#62=PLANE('',#1017);
#63=PLANE('',#1018);
#64=PLANE('',#1019);
#65=PLANE('',#1020);
#66=PLANE('',#1021);
#67=PLANE('',#1022);
#68=PLANE('',#1023);
#69=PLANE('',#1024);
#70=PLANE('',#1025);
#71=PLANE('',#1026);
#72=PLANE('',#1027);
#73=FACE_OUTER_BOUND('',#120,.T.);
#74=FACE_OUTER_BOUND('',#121,.T.);
#75=FACE_OUTER_BOUND('',#123,.T.);
#76=FACE_OUTER_BOUND('',#124,.T.);
#77=FACE_OUTER_BOUND('',#125,.T.);
#78=FACE_OUTER_BOUND('',#126,.T.);
#79=FACE_OUTER_BOUND('',#127,.T.);
#80=FACE_OUTER_BOUND('',#128,.T.);
#81=FACE_OUTER_BOUND('',#129,.T.);
#82=FACE_OUTER_BOUND('',#130,.T.);
#83=FACE_OUTER_BOUND('',#131,.T.);
#84=FACE_OUTER_BOUND('',#132,.T.);
#85=FACE_OUTER_BOUND('',#134,.T.);
#86=FACE_OUTER_BOUND('',#135,.T.);
#87=FACE_OUTER_BOUND('',#136,.T.);
#88=FACE_OUTER_BOUND('',#137,.T.);
#89=FACE_OUTER_BOUND('',#138,.T.);
#90=FACE_OUTER_BOUND('',#139,.T.);
#91=FACE_OUTER_BOUND('',#140,.T.);
#92=FACE_OUTER_BOUND('',#146,.T.);
#93=FACE_OUTER_BOUND('',#147,.T.);
#94=FACE_OUTER_BOUND('',#153,.T.);
#95=FACE_OUTER_BOUND('',#154,.T.);
#96=FACE_OUTER_BOUND('',#155,.T.);
#97=FACE_OUTER_BOUND('',#156,.T.);
#98=FACE_OUTER_BOUND('',#157,.T.);
#99=FACE_OUTER_BOUND('',#158,.T.);
#100=FACE_OUTER_BOUND('',#159,.T.);
#101=FACE_OUTER_BOUND('',#160,.T.);
#102=FACE_OUTER_BOUND('',#161,.T.);
#103=FACE_OUTER_BOUND('',#162,.T.);
#104=FACE_OUTER_BOUND('',#163,.T.);
#105=FACE_OUTER_BOUND('',#164,.T.);
#106=FACE_OUTER_BOUND('',#165,.T.);
#107=FACE_OUTER_BOUND('',#171,.T.);
#108=FACE_OUTER_BOUND('',#172,.T.);
#109=FACE_OUTER_BOUND('',#174,.T.);
#110=FACE_OUTER_BOUND('',#175,.T.);
#111=FACE_OUTER_BOUND('',#176,.T.);
#112=FACE_OUTER_BOUND('',#178,.T.);
#113=FACE_OUTER_BOUND('',#179,.T.);
#114=FACE_OUTER_BOUND('',#180,.T.);
#115=FACE_OUTER_BOUND('',#181,.T.);
#116=FACE_OUTER_BOUND('',#187,.T.);
#117=FACE_OUTER_BOUND('',#188,.T.);
#118=FACE_OUTER_BOUND('',#189,.T.);
#119=FACE_OUTER_BOUND('',#190,.T.);
#120=EDGE_LOOP('',(#626,#627,#628,#629));
#121=EDGE_LOOP('',(#630));
#122=EDGE_LOOP('',(#631));
#123=EDGE_LOOP('',(#632,#633,#634,#635));
#124=EDGE_LOOP('',(#636,#637,#638,#639));
#125=EDGE_LOOP('',(#640,#641,#642,#643));
#126=EDGE_LOOP('',(#644,#645,#646,#647));
#127=EDGE_LOOP('',(#648,#649,#650,#651));
#128=EDGE_LOOP('',(#652,#653,#654,#655,#656,#657,#658,#659,#660,#661,#662,
#663,#664,#665));
#129=EDGE_LOOP('',(#666,#667,#668,#669,#670,#671,#672,#673));
#130=EDGE_LOOP('',(#674,#675,#676,#677));
#131=EDGE_LOOP('',(#678,#679,#680,#681));
#132=EDGE_LOOP('',(#682,#683,#684,#685));
#133=EDGE_LOOP('',(#686));
#134=EDGE_LOOP('',(#687,#688,#689,#690,#691,#692,#693,#694));
#135=EDGE_LOOP('',(#695,#696,#697,#698));
#136=EDGE_LOOP('',(#699,#700,#701,#702,#703,#704));
#137=EDGE_LOOP('',(#705,#706,#707,#708));
#138=EDGE_LOOP('',(#709,#710,#711,#712,#713,#714,#715,#716,#717,#718,#719,
#720,#721,#722));
#139=EDGE_LOOP('',(#723,#724,#725,#726));
#140=EDGE_LOOP('',(#727));
#141=EDGE_LOOP('',(#728));
#142=EDGE_LOOP('',(#729));
#143=EDGE_LOOP('',(#730));
#144=EDGE_LOOP('',(#731));
#145=EDGE_LOOP('',(#732));
#146=EDGE_LOOP('',(#733,#734,#735,#736));
#147=EDGE_LOOP('',(#737));
#148=EDGE_LOOP('',(#738));
#149=EDGE_LOOP('',(#739));
#150=EDGE_LOOP('',(#740));
#151=EDGE_LOOP('',(#741));
#152=EDGE_LOOP('',(#742));
#153=EDGE_LOOP('',(#743,#744,#745,#746));
#154=EDGE_LOOP('',(#747,#748,#749,#750));
#155=EDGE_LOOP('',(#751,#752,#753,#754));
#156=EDGE_LOOP('',(#755,#756,#757,#758));
#157=EDGE_LOOP('',(#759,#760,#761,#762));
#158=EDGE_LOOP('',(#763,#764,#765,#766));
#159=EDGE_LOOP('',(#767,#768,#769,#770));
#160=EDGE_LOOP('',(#771,#772,#773,#774));
#161=EDGE_LOOP('',(#775,#776,#777,#778));
#162=EDGE_LOOP('',(#779,#780,#781,#782));
#163=EDGE_LOOP('',(#783,#784,#785,#786));
#164=EDGE_LOOP('',(#787,#788,#789,#790));
#165=EDGE_LOOP('',(#791,#792,#793,#794,#795,#796));
#166=EDGE_LOOP('',(#797));
#167=EDGE_LOOP('',(#798));
#168=EDGE_LOOP('',(#799));
#169=EDGE_LOOP('',(#800));
#170=EDGE_LOOP('',(#801));
#171=EDGE_LOOP('',(#802,#803,#804,#805));
#172=EDGE_LOOP('',(#806,#807,#808,#809,#810,#811));
#173=EDGE_LOOP('',(#812));
#174=EDGE_LOOP('',(#813,#814,#815,#816));
#175=EDGE_LOOP('',(#817,#818,#819,#820));
#176=EDGE_LOOP('',(#821,#822,#823,#824,#825,#826));
#177=EDGE_LOOP('',(#827));
#178=EDGE_LOOP('',(#828,#829,#830,#831));
#179=EDGE_LOOP('',(#832,#833,#834,#835));
#180=EDGE_LOOP('',(#836,#837,#838,#839));
#181=EDGE_LOOP('',(#840,#841,#842,#843,#844,#845));
#182=EDGE_LOOP('',(#846));
#183=EDGE_LOOP('',(#847));
#184=EDGE_LOOP('',(#848));
#185=EDGE_LOOP('',(#849));
#186=EDGE_LOOP('',(#850));
#187=EDGE_LOOP('',(#851,#852,#853,#854));
#188=EDGE_LOOP('',(#855,#856,#857,#858));
#189=EDGE_LOOP('',(#859,#860,#861,#862));
#190=EDGE_LOOP('',(#863,#864,#865,#866,#867,#868,#869,#870,#871,#872,#873,
#874,#875,#876));
#191=EDGE_LOOP('',(#877));
#192=LINE('',#1283,#290);
#193=LINE('',#1290,#291);
#194=LINE('',#1295,#292);
#195=LINE('',#1297,#293);
#196=LINE('',#1299,#294);
#197=LINE('',#1300,#295);
#198=LINE('',#1304,#296);
#199=LINE('',#1306,#297);
#200=LINE('',#1308,#298);
#201=LINE('',#1309,#299);
#202=LINE('',#1312,#300);
#203=LINE('',#1314,#301);
#204=LINE('',#1315,#302);
#205=LINE('',#1318,#303);
#206=LINE('',#1320,#304);
#207=LINE('',#1321,#305);
#208=LINE('',#1324,#306);
#209=LINE('',#1326,#307);
#210=LINE('',#1328,#308);
#211=LINE('',#1330,#309);
#212=LINE('',#1332,#310);
#213=LINE('',#1334,#311);
#214=LINE('',#1335,#312);
#215=LINE('',#1337,#313);
#216=LINE('',#1339,#314);
#217=LINE('',#1340,#315);
#218=LINE('',#1342,#316);
#219=LINE('',#1344,#317);
#220=LINE('',#1346,#318);
#221=LINE('',#1347,#319);
#222=LINE('',#1350,#320);
#223=LINE('',#1351,#321);
#224=LINE('',#1354,#322);
#225=LINE('',#1355,#323);
#226=LINE('',#1357,#324);
#227=LINE('',#1361,#325);
#228=LINE('',#1362,#326);
#229=LINE('',#1365,#327);
#230=LINE('',#1367,#328);
#231=LINE('',#1369,#329);
#232=LINE('',#1370,#330);
#233=LINE('',#1372,#331);
#234=LINE('',#1375,#332);
#235=LINE('',#1377,#333);
#236=LINE('',#1379,#334);
#237=LINE('',#1381,#335);
#238=LINE('',#1383,#336);
#239=LINE('',#1385,#337);
#240=LINE('',#1387,#338);
#241=LINE('',#1389,#339);
#242=LINE('',#1391,#340);
#243=LINE('',#1393,#341);
#244=LINE('',#1394,#342);
#245=LINE('',#1399,#343);
#246=LINE('',#1416,#344);
#247=LINE('',#1432,#345);
#248=LINE('',#1436,#346);
#249=LINE('',#1440,#347);
#250=LINE('',#1444,#348);
#251=LINE('',#1448,#349);
#252=LINE('',#1452,#350);
#253=LINE('',#1456,#351);
#254=LINE('',#1460,#352);
#255=LINE('',#1464,#353);
#256=LINE('',#1468,#354);
#257=LINE('',#1472,#355);
#258=LINE('',#1474,#356);
#259=LINE('',#1476,#357);
#260=LINE('',#1477,#358);
#261=LINE('',#1480,#359);
#262=LINE('',#1482,#360);
#263=LINE('',#1483,#361);
#264=LINE('',#1486,#362);
#265=LINE('',#1487,#363);
#266=LINE('',#1488,#364);
#267=LINE('',#1490,#365);
#268=LINE('',#1493,#366);
#269=LINE('',#1494,#367);
#270=LINE('',#1498,#368);
#271=LINE('',#1500,#369);
#272=LINE('',#1502,#370);
#273=LINE('',#1503,#371);
#274=LINE('',#1506,#372);
#275=LINE('',#1508,#373);
#276=LINE('',#1509,#374);
#277=LINE('',#1512,#375);
#278=LINE('',#1513,#376);
#279=LINE('',#1514,#377);
#280=LINE('',#1516,#378);
#281=LINE('',#1518,#379);
#282=LINE('',#1520,#380);
#283=LINE('',#1523,#381);
#284=LINE('',#1524,#382);
#285=LINE('',#1527,#383);
#286=LINE('',#1528,#384);
#287=LINE('',#1531,#385);
#288=LINE('',#1532,#386);
#289=LINE('',#1534,#387);
#290=VECTOR('',#1034,8.82869755775573);
#291=VECTOR('',#1043,5.);
#292=VECTOR('',#1048,10.);
#293=VECTOR('',#1049,10.);
#294=VECTOR('',#1050,10.);
#295=VECTOR('',#1051,10.);
#296=VECTOR('',#1054,10.);
#297=VECTOR('',#1055,10.);
#298=VECTOR('',#1056,10.);
#299=VECTOR('',#1057,10.);
#300=VECTOR('',#1060,10.);
#301=VECTOR('',#1061,10.);
#302=VECTOR('',#1062,10.);
#303=VECTOR('',#1065,10.);
#304=VECTOR('',#1066,10.);
#305=VECTOR('',#1067,10.);
#306=VECTOR('',#1070,10.);
#307=VECTOR('',#1071,10.);
#308=VECTOR('',#1072,10.);
#309=VECTOR('',#1073,10.);
#310=VECTOR('',#1074,10.);
#311=VECTOR('',#1075,10.);
#312=VECTOR('',#1076,10.);
#313=VECTOR('',#1077,10.);
#314=VECTOR('',#1078,10.);
#315=VECTOR('',#1079,10.);
#316=VECTOR('',#1082,10.);
#317=VECTOR('',#1083,10.);
#318=VECTOR('',#1084,10.);
#319=VECTOR('',#1085,10.);
#320=VECTOR('',#1088,10.);
#321=VECTOR('',#1089,10.);
#322=VECTOR('',#1092,10.);
#323=VECTOR('',#1093,10.);
#324=VECTOR('',#1096,10.);
#325=VECTOR('',#1101,10.);
#326=VECTOR('',#1102,10.);
#327=VECTOR('',#1105,10.);
#328=VECTOR('',#1106,10.);
#329=VECTOR('',#1107,10.);
#330=VECTOR('',#1108,10.);
#331=VECTOR('',#1111,10.);
#332=VECTOR('',#1114,10.);
#333=VECTOR('',#1115,10.);
#334=VECTOR('',#1116,10.);
#335=VECTOR('',#1117,10.);
#336=VECTOR('',#1118,10.);
#337=VECTOR('',#1119,10.);
#338=VECTOR('',#1120,10.);
#339=VECTOR('',#1121,10.);
#340=VECTOR('',#1122,10.);
#341=VECTOR('',#1123,10.);
#342=VECTOR('',#1124,10.);
#343=VECTOR('',#1129,13.5599834742559);
#344=VECTOR('',#1148,13.5599834742559);
#345=VECTOR('',#1167,1.75000000000001);
#346=VECTOR('',#1172,1.75000000000001);
#347=VECTOR('',#1177,1.74999999999999);
#348=VECTOR('',#1182,6.00000000000001);
#349=VECTOR('',#1187,1.74999999999999);
#350=VECTOR('',#1192,1.75000000000001);
#351=VECTOR('',#1197,1.75000000000001);
#352=VECTOR('',#1202,1.74999999999999);
#353=VECTOR('',#1207,6.00000000000001);
#354=VECTOR('',#1212,1.74999999999999);
#355=VECTOR('',#1215,10.);
#356=VECTOR('',#1216,10.);
#357=VECTOR('',#1217,10.);
#358=VECTOR('',#1218,10.);
#359=VECTOR('',#1221,10.);
#360=VECTOR('',#1222,10.);
#361=VECTOR('',#1223,10.);
#362=VECTOR('',#1226,10.);
#363=VECTOR('',#1227,10.);
#364=VECTOR('',#1228,10.);
#365=VECTOR('',#1231,10.);
#366=VECTOR('',#1234,10.);
#367=VECTOR('',#1235,10.);
#368=VECTOR('',#1238,10.);
#369=VECTOR('',#1239,10.);
#370=VECTOR('',#1240,10.);
#371=VECTOR('',#1241,10.);
#372=VECTOR('',#1244,10.);
#373=VECTOR('',#1245,10.);
#374=VECTOR('',#1246,10.);
#375=VECTOR('',#1249,10.);
#376=VECTOR('',#1250,10.);
#377=VECTOR('',#1251,10.);
#378=VECTOR('',#1254,10.);
#379=VECTOR('',#1257,10.);
#380=VECTOR('',#1260,10.);
#381=VECTOR('',#1263,10.);
#382=VECTOR('',#1264,10.);
#383=VECTOR('',#1267,10.);
#384=VECTOR('',#1268,10.);
#385=VECTOR('',#1271,10.);
#386=VECTOR('',#1272,10.);
#387=VECTOR('',#1275,10.);
#388=CIRCLE('',#954,8.82869755775573);
#389=CIRCLE('',#955,8.82869755775573);
#390=CIRCLE('',#957,5.);
#391=CIRCLE('',#959,5.);
#392=CIRCLE('',#975,13.5599834742559);
#393=CIRCLE('',#976,13.5599834742559);
#394=CIRCLE('',#978,1.74999999999999);
#395=CIRCLE('',#979,6.00000000000001);
#396=CIRCLE('',#980,1.74999999999999);
#397=CIRCLE('',#981,1.75000000000001);
#398=CIRCLE('',#982,1.75000000000001);
#399=CIRCLE('',#984,13.5599834742559);
#400=CIRCLE('',#985,13.5599834742559);
#401=CIRCLE('',#987,1.74999999999999);
#402=CIRCLE('',#988,6.00000000000001);
#403=CIRCLE('',#989,1.74999999999999);
#404=CIRCLE('',#990,1.75000000000001);
#405=CIRCLE('',#991,1.75000000000001);
#406=CIRCLE('',#993,1.75000000000001);
#407=CIRCLE('',#995,1.75000000000001);
#408=CIRCLE('',#997,1.74999999999999);
#409=CIRCLE('',#999,6.00000000000001);
#410=CIRCLE('',#1001,1.74999999999999);
#411=CIRCLE('',#1003,1.75000000000001);
#412=CIRCLE('',#1005,1.75000000000001);
#413=CIRCLE('',#1007,1.74999999999999);
#414=CIRCLE('',#1009,6.00000000000001);
#415=CIRCLE('',#1011,1.74999999999999);
#416=VERTEX_POINT('',#1280);
#417=VERTEX_POINT('',#1282);
#418=VERTEX_POINT('',#1286);
#419=VERTEX_POINT('',#1289);
#420=VERTEX_POINT('',#1293);
#421=VERTEX_POINT('',#1294);
#422=VERTEX_POINT('',#1296);
#423=VERTEX_POINT('',#1298);
#424=VERTEX_POINT('',#1302);
#425=VERTEX_POINT('',#1303);
#426=VERTEX_POINT('',#1305);
#427=VERTEX_POINT('',#1307);
#428=VERTEX_POINT('',#1311);
#429=VERTEX_POINT('',#1313);
#430=VERTEX_POINT('',#1317);
#431=VERTEX_POINT('',#1319);
#432=VERTEX_POINT('',#1323);
#433=VERTEX_POINT('',#1325);
#434=VERTEX_POINT('',#1327);
#435=VERTEX_POINT('',#1329);
#436=VERTEX_POINT('',#1331);
#437=VERTEX_POINT('',#1333);
#438=VERTEX_POINT('',#1336);
#439=VERTEX_POINT('',#1338);
#440=VERTEX_POINT('',#1343);
#441=VERTEX_POINT('',#1345);
#442=VERTEX_POINT('',#1349);
#443=VERTEX_POINT('',#1353);
#444=VERTEX_POINT('',#1360);
#445=VERTEX_POINT('',#1364);
#446=VERTEX_POINT('',#1366);
#447=VERTEX_POINT('',#1368);
#448=VERTEX_POINT('',#1374);
#449=VERTEX_POINT('',#1376);
#450=VERTEX_POINT('',#1378);
#451=VERTEX_POINT('',#1380);
#452=VERTEX_POINT('',#1382);
#453=VERTEX_POINT('',#1384);
#454=VERTEX_POINT('',#1386);
#455=VERTEX_POINT('',#1388);
#456=VERTEX_POINT('',#1390);
#457=VERTEX_POINT('',#1392);
#458=VERTEX_POINT('',#1396);
#459=VERTEX_POINT('',#1398);
#460=VERTEX_POINT('',#1402);
#461=VERTEX_POINT('',#1404);
#462=VERTEX_POINT('',#1406);
#463=VERTEX_POINT('',#1408);
#464=VERTEX_POINT('',#1410);
#465=VERTEX_POINT('',#1413);
#466=VERTEX_POINT('',#1415);
#467=VERTEX_POINT('',#1419);
#468=VERTEX_POINT('',#1421);
#469=VERTEX_POINT('',#1423);
#470=VERTEX_POINT('',#1425);
#471=VERTEX_POINT('',#1427);
#472=VERTEX_POINT('',#1430);
#473=VERTEX_POINT('',#1434);
#474=VERTEX_POINT('',#1438);
#475=VERTEX_POINT('',#1442);
#476=VERTEX_POINT('',#1446);
#477=VERTEX_POINT('',#1450);
#478=VERTEX_POINT('',#1454);
#479=VERTEX_POINT('',#1458);
#480=VERTEX_POINT('',#1462);
#481=VERTEX_POINT('',#1466);
#482=VERTEX_POINT('',#1470);
#483=VERTEX_POINT('',#1471);
#484=VERTEX_POINT('',#1473);
#485=VERTEX_POINT('',#1475);
#486=VERTEX_POINT('',#1479);
#487=VERTEX_POINT('',#1481);
#488=VERTEX_POINT('',#1485);
#489=VERTEX_POINT('',#1492);
#490=VERTEX_POINT('',#1496);
#491=VERTEX_POINT('',#1497);
#492=VERTEX_POINT('',#1499);
#493=VERTEX_POINT('',#1501);
#494=VERTEX_POINT('',#1505);
#495=VERTEX_POINT('',#1507);
#496=VERTEX_POINT('',#1511);
#497=VERTEX_POINT('',#1522);
#498=VERTEX_POINT('',#1526);
#499=VERTEX_POINT('',#1530);
#500=EDGE_CURVE('',#416,#416,#388,.T.);
#501=EDGE_CURVE('',#416,#417,#192,.T.);
#502=EDGE_CURVE('',#417,#417,#389,.T.);
#503=EDGE_CURVE('',#418,#418,#390,.T.);
#504=EDGE_CURVE('',#418,#419,#193,.T.);
#505=EDGE_CURVE('',#419,#419,#391,.T.);
#506=EDGE_CURVE('',#420,#421,#194,.T.);
#507=EDGE_CURVE('',#420,#422,#195,.T.);
#508=EDGE_CURVE('',#423,#422,#196,.T.);
#509=EDGE_CURVE('',#421,#423,#197,.T.);
#510=EDGE_CURVE('',#424,#425,#198,.T.);
#511=EDGE_CURVE('',#426,#424,#199,.T.);
#512=EDGE_CURVE('',#427,#426,#200,.T.);
#513=EDGE_CURVE('',#427,#425,#201,.T.);
#514=EDGE_CURVE('',#425,#428,#202,.T.);
#515=EDGE_CURVE('',#429,#428,#203,.T.);
#516=EDGE_CURVE('',#424,#429,#204,.T.);
#517=EDGE_CURVE('',#430,#421,#205,.T.);
#518=EDGE_CURVE('',#430,#431,#206,.T.);
#519=EDGE_CURVE('',#431,#420,#207,.T.);
#520=EDGE_CURVE('',#423,#432,#208,.T.);
#521=EDGE_CURVE('',#433,#432,#209,.T.);
#522=EDGE_CURVE('',#434,#433,#210,.T.);
#523=EDGE_CURVE('',#435,#434,#211,.T.);
#524=EDGE_CURVE('',#435,#436,#212,.T.);
#525=EDGE_CURVE('',#437,#436,#213,.T.);
#526=EDGE_CURVE('',#437,#426,#214,.T.);
#527=EDGE_CURVE('',#429,#438,#215,.T.);
#528=EDGE_CURVE('',#438,#439,#216,.T.);
#529=EDGE_CURVE('',#439,#430,#217,.T.);
#530=EDGE_CURVE('',#422,#427,#218,.T.);
#531=EDGE_CURVE('',#440,#437,#219,.T.);
#532=EDGE_CURVE('',#440,#441,#220,.T.);
#533=EDGE_CURVE('',#432,#441,#221,.T.);
#534=EDGE_CURVE('',#439,#442,#222,.T.);
#535=EDGE_CURVE('',#442,#431,#223,.T.);
#536=EDGE_CURVE('',#438,#443,#224,.T.);
#537=EDGE_CURVE('',#443,#442,#225,.T.);
#538=EDGE_CURVE('',#428,#443,#226,.T.);
#539=EDGE_CURVE('',#444,#440,#227,.T.);
#540=EDGE_CURVE('',#436,#444,#228,.T.);
#541=EDGE_CURVE('',#444,#445,#229,.T.);
#542=EDGE_CURVE('',#445,#446,#230,.T.);
#543=EDGE_CURVE('',#447,#446,#231,.T.);
#544=EDGE_CURVE('',#441,#447,#232,.T.);
#545=EDGE_CURVE('',#447,#433,#233,.T.);
#546=EDGE_CURVE('',#446,#448,#234,.T.);
#547=EDGE_CURVE('',#448,#449,#235,.T.);
#548=EDGE_CURVE('',#450,#449,#236,.T.);
#549=EDGE_CURVE('',#450,#451,#237,.T.);
#550=EDGE_CURVE('',#451,#452,#238,.T.);
#551=EDGE_CURVE('',#452,#453,#239,.T.);
#552=EDGE_CURVE('',#453,#454,#240,.T.);
#553=EDGE_CURVE('',#454,#455,#241,.T.);
#554=EDGE_CURVE('',#456,#455,#242,.T.);
#555=EDGE_CURVE('',#456,#457,#243,.T.);
#556=EDGE_CURVE('',#457,#434,#244,.T.);
#557=EDGE_CURVE('',#458,#458,#392,.T.);
#558=EDGE_CURVE('',#458,#459,#245,.T.);
#559=EDGE_CURVE('',#459,#459,#393,.T.);
#560=EDGE_CURVE('',#460,#460,#394,.T.);
#561=EDGE_CURVE('',#461,#461,#395,.T.);
#562=EDGE_CURVE('',#462,#462,#396,.T.);
#563=EDGE_CURVE('',#463,#463,#397,.T.);
#564=EDGE_CURVE('',#464,#464,#398,.T.);
#565=EDGE_CURVE('',#465,#465,#399,.T.);
#566=EDGE_CURVE('',#465,#466,#246,.T.);
#567=EDGE_CURVE('',#466,#466,#400,.T.);
#568=EDGE_CURVE('',#467,#467,#401,.T.);
#569=EDGE_CURVE('',#468,#468,#402,.T.);
#570=EDGE_CURVE('',#469,#469,#403,.T.);
#571=EDGE_CURVE('',#470,#470,#404,.T.);
#572=EDGE_CURVE('',#471,#471,#405,.T.);
#573=EDGE_CURVE('',#472,#472,#406,.T.);
#574=EDGE_CURVE('',#472,#471,#247,.T.);
#575=EDGE_CURVE('',#473,#473,#407,.T.);
#576=EDGE_CURVE('',#473,#470,#248,.T.);
#577=EDGE_CURVE('',#474,#474,#408,.T.);
#578=EDGE_CURVE('',#474,#469,#249,.T.);
#579=EDGE_CURVE('',#475,#475,#409,.T.);
#580=EDGE_CURVE('',#475,#468,#250,.T.);
#581=EDGE_CURVE('',#476,#476,#410,.T.);
#582=EDGE_CURVE('',#476,#467,#251,.T.);
#583=EDGE_CURVE('',#477,#477,#411,.T.);
#584=EDGE_CURVE('',#477,#464,#252,.T.);
#585=EDGE_CURVE('',#478,#478,#412,.T.);
#586=EDGE_CURVE('',#478,#463,#253,.T.);
#587=EDGE_CURVE('',#479,#479,#413,.T.);
#588=EDGE_CURVE('',#479,#462,#254,.T.);
#589=EDGE_CURVE('',#480,#480,#414,.T.);
#590=EDGE_CURVE('',#480,#461,#255,.T.);
#591=EDGE_CURVE('',#481,#481,#415,.T.);
#592=EDGE_CURVE('',#481,#460,#256,.T.);
#593=EDGE_CURVE('',#482,#483,#257,.T.);
#594=EDGE_CURVE('',#483,#484,#258,.T.);
#595=EDGE_CURVE('',#484,#485,#259,.T.);
#596=EDGE_CURVE('',#485,#482,#260,.T.);
#597=EDGE_CURVE('',#485,#486,#261,.T.);
#598=EDGE_CURVE('',#487,#486,#262,.T.);
#599=EDGE_CURVE('',#482,#487,#263,.T.);
#600=EDGE_CURVE('',#488,#484,#264,.T.);
#601=EDGE_CURVE('',#488,#451,#265,.T.);
#602=EDGE_CURVE('',#486,#450,#266,.T.);
#603=EDGE_CURVE('',#449,#487,#267,.T.);
#604=EDGE_CURVE('',#489,#448,#268,.T.);
#605=EDGE_CURVE('',#483,#489,#269,.T.);
#606=EDGE_CURVE('',#490,#491,#270,.T.);
#607=EDGE_CURVE('',#491,#492,#271,.T.);
#608=EDGE_CURVE('',#492,#493,#272,.T.);
#609=EDGE_CURVE('',#493,#490,#273,.T.);
#610=EDGE_CURVE('',#491,#494,#274,.T.);
#611=EDGE_CURVE('',#495,#494,#275,.T.);
#612=EDGE_CURVE('',#492,#495,#276,.T.);
#613=EDGE_CURVE('',#496,#490,#277,.T.);
#614=EDGE_CURVE('',#496,#457,#278,.T.);
#615=EDGE_CURVE('',#494,#456,#279,.T.);
#616=EDGE_CURVE('',#455,#495,#280,.T.);
#617=EDGE_CURVE('',#489,#445,#281,.T.);
#618=EDGE_CURVE('',#496,#435,#282,.T.);
#619=EDGE_CURVE('',#497,#454,#283,.T.);
#620=EDGE_CURVE('',#493,#497,#284,.T.);
#621=EDGE_CURVE('',#498,#497,#285,.T.);
#622=EDGE_CURVE('',#498,#453,#286,.T.);
#623=EDGE_CURVE('',#499,#498,#287,.T.);
#624=EDGE_CURVE('',#499,#452,#288,.T.);
#625=EDGE_CURVE('',#499,#488,#289,.T.);
#626=ORIENTED_EDGE('',*,*,#500,.F.);
#627=ORIENTED_EDGE('',*,*,#501,.T.);
#628=ORIENTED_EDGE('',*,*,#502,.T.);
#629=ORIENTED_EDGE('',*,*,#501,.F.);
#630=ORIENTED_EDGE('',*,*,#502,.F.);
#631=ORIENTED_EDGE('',*,*,#503,.F.);
#632=ORIENTED_EDGE('',*,*,#503,.T.);
#633=ORIENTED_EDGE('',*,*,#504,.T.);
#634=ORIENTED_EDGE('',*,*,#505,.F.);
#635=ORIENTED_EDGE('',*,*,#504,.F.);
#636=ORIENTED_EDGE('',*,*,#506,.F.);
#637=ORIENTED_EDGE('',*,*,#507,.T.);
#638=ORIENTED_EDGE('',*,*,#508,.F.);
#639=ORIENTED_EDGE('',*,*,#509,.F.);
#640=ORIENTED_EDGE('',*,*,#510,.F.);
#641=ORIENTED_EDGE('',*,*,#511,.F.);
#642=ORIENTED_EDGE('',*,*,#512,.F.);
#643=ORIENTED_EDGE('',*,*,#513,.T.);
#644=ORIENTED_EDGE('',*,*,#510,.T.);
#645=ORIENTED_EDGE('',*,*,#514,.T.);
#646=ORIENTED_EDGE('',*,*,#515,.F.);
#647=ORIENTED_EDGE('',*,*,#516,.F.);
#648=ORIENTED_EDGE('',*,*,#506,.T.);
#649=ORIENTED_EDGE('',*,*,#517,.F.);
#650=ORIENTED_EDGE('',*,*,#518,.T.);
#651=ORIENTED_EDGE('',*,*,#519,.T.);
#652=ORIENTED_EDGE('',*,*,#509,.T.);
#653=ORIENTED_EDGE('',*,*,#520,.T.);
#654=ORIENTED_EDGE('',*,*,#521,.F.);
#655=ORIENTED_EDGE('',*,*,#522,.F.);
#656=ORIENTED_EDGE('',*,*,#523,.F.);
#657=ORIENTED_EDGE('',*,*,#524,.T.);
#658=ORIENTED_EDGE('',*,*,#525,.F.);
#659=ORIENTED_EDGE('',*,*,#526,.T.);
#660=ORIENTED_EDGE('',*,*,#511,.T.);
#661=ORIENTED_EDGE('',*,*,#516,.T.);
#662=ORIENTED_EDGE('',*,*,#527,.T.);
#663=ORIENTED_EDGE('',*,*,#528,.T.);
#664=ORIENTED_EDGE('',*,*,#529,.T.);
#665=ORIENTED_EDGE('',*,*,#517,.T.);
#666=ORIENTED_EDGE('',*,*,#508,.T.);
#667=ORIENTED_EDGE('',*,*,#530,.T.);
#668=ORIENTED_EDGE('',*,*,#512,.T.);
#669=ORIENTED_EDGE('',*,*,#526,.F.);
#670=ORIENTED_EDGE('',*,*,#531,.F.);
#671=ORIENTED_EDGE('',*,*,#532,.T.);
#672=ORIENTED_EDGE('',*,*,#533,.F.);
#673=ORIENTED_EDGE('',*,*,#520,.F.);
#674=ORIENTED_EDGE('',*,*,#529,.F.);
#675=ORIENTED_EDGE('',*,*,#534,.T.);
#676=ORIENTED_EDGE('',*,*,#535,.T.);
#677=ORIENTED_EDGE('',*,*,#518,.F.);
#678=ORIENTED_EDGE('',*,*,#528,.F.);
#679=ORIENTED_EDGE('',*,*,#536,.T.);
#680=ORIENTED_EDGE('',*,*,#537,.T.);
#681=ORIENTED_EDGE('',*,*,#534,.F.);
#682=ORIENTED_EDGE('',*,*,#527,.F.);
#683=ORIENTED_EDGE('',*,*,#515,.T.);
#684=ORIENTED_EDGE('',*,*,#538,.T.);
#685=ORIENTED_EDGE('',*,*,#536,.F.);
#686=ORIENTED_EDGE('',*,*,#505,.T.);
#687=ORIENTED_EDGE('',*,*,#519,.F.);
#688=ORIENTED_EDGE('',*,*,#535,.F.);
#689=ORIENTED_EDGE('',*,*,#537,.F.);
#690=ORIENTED_EDGE('',*,*,#538,.F.);
#691=ORIENTED_EDGE('',*,*,#514,.F.);
#692=ORIENTED_EDGE('',*,*,#513,.F.);
#693=ORIENTED_EDGE('',*,*,#530,.F.);
#694=ORIENTED_EDGE('',*,*,#507,.F.);
#695=ORIENTED_EDGE('',*,*,#539,.T.);
#696=ORIENTED_EDGE('',*,*,#531,.T.);
#697=ORIENTED_EDGE('',*,*,#525,.T.);
#698=ORIENTED_EDGE('',*,*,#540,.T.);
#699=ORIENTED_EDGE('',*,*,#539,.F.);
#700=ORIENTED_EDGE('',*,*,#541,.T.);
#701=ORIENTED_EDGE('',*,*,#542,.T.);
#702=ORIENTED_EDGE('',*,*,#543,.F.);
#703=ORIENTED_EDGE('',*,*,#544,.F.);
#704=ORIENTED_EDGE('',*,*,#532,.F.);
#705=ORIENTED_EDGE('',*,*,#544,.T.);
#706=ORIENTED_EDGE('',*,*,#545,.T.);
#707=ORIENTED_EDGE('',*,*,#521,.T.);
#708=ORIENTED_EDGE('',*,*,#533,.T.);
#709=ORIENTED_EDGE('',*,*,#545,.F.);
#710=ORIENTED_EDGE('',*,*,#543,.T.);
#711=ORIENTED_EDGE('',*,*,#546,.T.);
#712=ORIENTED_EDGE('',*,*,#547,.T.);
#713=ORIENTED_EDGE('',*,*,#548,.F.);
#714=ORIENTED_EDGE('',*,*,#549,.T.);
#715=ORIENTED_EDGE('',*,*,#550,.T.);
#716=ORIENTED_EDGE('',*,*,#551,.T.);
#717=ORIENTED_EDGE('',*,*,#552,.T.);
#718=ORIENTED_EDGE('',*,*,#553,.T.);
#719=ORIENTED_EDGE('',*,*,#554,.F.);
#720=ORIENTED_EDGE('',*,*,#555,.T.);
#721=ORIENTED_EDGE('',*,*,#556,.T.);
#722=ORIENTED_EDGE('',*,*,#522,.T.);
#723=ORIENTED_EDGE('',*,*,#557,.F.);
#724=ORIENTED_EDGE('',*,*,#558,.T.);
#725=ORIENTED_EDGE('',*,*,#559,.T.);
#726=ORIENTED_EDGE('',*,*,#558,.F.);
#727=ORIENTED_EDGE('',*,*,#559,.F.);
#728=ORIENTED_EDGE('',*,*,#560,.F.);
#729=ORIENTED_EDGE('',*,*,#561,.F.);
#730=ORIENTED_EDGE('',*,*,#562,.F.);
#731=ORIENTED_EDGE('',*,*,#563,.F.);
#732=ORIENTED_EDGE('',*,*,#564,.F.);
#733=ORIENTED_EDGE('',*,*,#565,.F.);
#734=ORIENTED_EDGE('',*,*,#566,.T.);
#735=ORIENTED_EDGE('',*,*,#567,.T.);
#736=ORIENTED_EDGE('',*,*,#566,.F.);
#737=ORIENTED_EDGE('',*,*,#567,.F.);
#738=ORIENTED_EDGE('',*,*,#568,.F.);
#739=ORIENTED_EDGE('',*,*,#569,.F.);
#740=ORIENTED_EDGE('',*,*,#570,.F.);
#741=ORIENTED_EDGE('',*,*,#571,.F.);
#742=ORIENTED_EDGE('',*,*,#572,.F.);
#743=ORIENTED_EDGE('',*,*,#573,.F.);
#744=ORIENTED_EDGE('',*,*,#574,.T.);
#745=ORIENTED_EDGE('',*,*,#572,.T.);
#746=ORIENTED_EDGE('',*,*,#574,.F.);
#747=ORIENTED_EDGE('',*,*,#575,.F.);
#748=ORIENTED_EDGE('',*,*,#576,.T.);
#749=ORIENTED_EDGE('',*,*,#571,.T.);
#750=ORIENTED_EDGE('',*,*,#576,.F.);
#751=ORIENTED_EDGE('',*,*,#577,.F.);
#752=ORIENTED_EDGE('',*,*,#578,.T.);
#753=ORIENTED_EDGE('',*,*,#570,.T.);
#754=ORIENTED_EDGE('',*,*,#578,.F.);
#755=ORIENTED_EDGE('',*,*,#579,.F.);
#756=ORIENTED_EDGE('',*,*,#580,.T.);
#757=ORIENTED_EDGE('',*,*,#569,.T.);
#758=ORIENTED_EDGE('',*,*,#580,.F.);
#759=ORIENTED_EDGE('',*,*,#581,.F.);
#760=ORIENTED_EDGE('',*,*,#582,.T.);
#761=ORIENTED_EDGE('',*,*,#568,.T.);
#762=ORIENTED_EDGE('',*,*,#582,.F.);
#763=ORIENTED_EDGE('',*,*,#583,.F.);
#764=ORIENTED_EDGE('',*,*,#584,.T.);
#765=ORIENTED_EDGE('',*,*,#564,.T.);
#766=ORIENTED_EDGE('',*,*,#584,.F.);
#767=ORIENTED_EDGE('',*,*,#585,.F.);
#768=ORIENTED_EDGE('',*,*,#586,.T.);
#769=ORIENTED_EDGE('',*,*,#563,.T.);
#770=ORIENTED_EDGE('',*,*,#586,.F.);
#771=ORIENTED_EDGE('',*,*,#587,.F.);
#772=ORIENTED_EDGE('',*,*,#588,.T.);
#773=ORIENTED_EDGE('',*,*,#562,.T.);
#774=ORIENTED_EDGE('',*,*,#588,.F.);
#775=ORIENTED_EDGE('',*,*,#589,.F.);
#776=ORIENTED_EDGE('',*,*,#590,.T.);
#777=ORIENTED_EDGE('',*,*,#561,.T.);
#778=ORIENTED_EDGE('',*,*,#590,.F.);
#779=ORIENTED_EDGE('',*,*,#591,.F.);
#780=ORIENTED_EDGE('',*,*,#592,.T.);
#781=ORIENTED_EDGE('',*,*,#560,.T.);
#782=ORIENTED_EDGE('',*,*,#592,.F.);
#783=ORIENTED_EDGE('',*,*,#593,.T.);
#784=ORIENTED_EDGE('',*,*,#594,.T.);
#785=ORIENTED_EDGE('',*,*,#595,.T.);
#786=ORIENTED_EDGE('',*,*,#596,.T.);
#787=ORIENTED_EDGE('',*,*,#596,.F.);
#788=ORIENTED_EDGE('',*,*,#597,.T.);
#789=ORIENTED_EDGE('',*,*,#598,.F.);
#790=ORIENTED_EDGE('',*,*,#599,.F.);
#791=ORIENTED_EDGE('',*,*,#595,.F.);
#792=ORIENTED_EDGE('',*,*,#600,.F.);
#793=ORIENTED_EDGE('',*,*,#601,.T.);
#794=ORIENTED_EDGE('',*,*,#549,.F.);
#795=ORIENTED_EDGE('',*,*,#602,.F.);
#796=ORIENTED_EDGE('',*,*,#597,.F.);
#797=ORIENTED_EDGE('',*,*,#591,.T.);
#798=ORIENTED_EDGE('',*,*,#589,.T.);
#799=ORIENTED_EDGE('',*,*,#587,.T.);
#800=ORIENTED_EDGE('',*,*,#585,.T.);
#801=ORIENTED_EDGE('',*,*,#583,.T.);
#802=ORIENTED_EDGE('',*,*,#603,.T.);
#803=ORIENTED_EDGE('',*,*,#598,.T.);
#804=ORIENTED_EDGE('',*,*,#602,.T.);
#805=ORIENTED_EDGE('',*,*,#548,.T.);
#806=ORIENTED_EDGE('',*,*,#593,.F.);
#807=ORIENTED_EDGE('',*,*,#599,.T.);
#808=ORIENTED_EDGE('',*,*,#603,.F.);
#809=ORIENTED_EDGE('',*,*,#547,.F.);
#810=ORIENTED_EDGE('',*,*,#604,.F.);
#811=ORIENTED_EDGE('',*,*,#605,.F.);
#812=ORIENTED_EDGE('',*,*,#557,.T.);
#813=ORIENTED_EDGE('',*,*,#606,.T.);
#814=ORIENTED_EDGE('',*,*,#607,.T.);
#815=ORIENTED_EDGE('',*,*,#608,.T.);
#816=ORIENTED_EDGE('',*,*,#609,.T.);
#817=ORIENTED_EDGE('',*,*,#607,.F.);
#818=ORIENTED_EDGE('',*,*,#610,.T.);
#819=ORIENTED_EDGE('',*,*,#611,.F.);
#820=ORIENTED_EDGE('',*,*,#612,.F.);
#821=ORIENTED_EDGE('',*,*,#606,.F.);
#822=ORIENTED_EDGE('',*,*,#613,.F.);
#823=ORIENTED_EDGE('',*,*,#614,.T.);
#824=ORIENTED_EDGE('',*,*,#555,.F.);
#825=ORIENTED_EDGE('',*,*,#615,.F.);
#826=ORIENTED_EDGE('',*,*,#610,.F.);
#827=ORIENTED_EDGE('',*,*,#565,.T.);
#828=ORIENTED_EDGE('',*,*,#615,.T.);
#829=ORIENTED_EDGE('',*,*,#554,.T.);
#830=ORIENTED_EDGE('',*,*,#616,.T.);
#831=ORIENTED_EDGE('',*,*,#611,.T.);
#832=ORIENTED_EDGE('',*,*,#617,.F.);
#833=ORIENTED_EDGE('',*,*,#604,.T.);
#834=ORIENTED_EDGE('',*,*,#546,.F.);
#835=ORIENTED_EDGE('',*,*,#542,.F.);
#836=ORIENTED_EDGE('',*,*,#618,.T.);
#837=ORIENTED_EDGE('',*,*,#523,.T.);
#838=ORIENTED_EDGE('',*,*,#556,.F.);
#839=ORIENTED_EDGE('',*,*,#614,.F.);
#840=ORIENTED_EDGE('',*,*,#608,.F.);
#841=ORIENTED_EDGE('',*,*,#612,.T.);
#842=ORIENTED_EDGE('',*,*,#616,.F.);
#843=ORIENTED_EDGE('',*,*,#553,.F.);
#844=ORIENTED_EDGE('',*,*,#619,.F.);
#845=ORIENTED_EDGE('',*,*,#620,.F.);
#846=ORIENTED_EDGE('',*,*,#581,.T.);
#847=ORIENTED_EDGE('',*,*,#579,.T.);
#848=ORIENTED_EDGE('',*,*,#577,.T.);
#849=ORIENTED_EDGE('',*,*,#575,.T.);
#850=ORIENTED_EDGE('',*,*,#573,.T.);
#851=ORIENTED_EDGE('',*,*,#621,.T.);
#852=ORIENTED_EDGE('',*,*,#619,.T.);
#853=ORIENTED_EDGE('',*,*,#552,.F.);
#854=ORIENTED_EDGE('',*,*,#622,.F.);
#855=ORIENTED_EDGE('',*,*,#623,.T.);
#856=ORIENTED_EDGE('',*,*,#622,.T.);
#857=ORIENTED_EDGE('',*,*,#551,.F.);
#858=ORIENTED_EDGE('',*,*,#624,.F.);
#859=ORIENTED_EDGE('',*,*,#625,.F.);
#860=ORIENTED_EDGE('',*,*,#624,.T.);
#861=ORIENTED_EDGE('',*,*,#550,.F.);
#862=ORIENTED_EDGE('',*,*,#601,.F.);
#863=ORIENTED_EDGE('',*,*,#540,.F.);
#864=ORIENTED_EDGE('',*,*,#524,.F.);
#865=ORIENTED_EDGE('',*,*,#618,.F.);
#866=ORIENTED_EDGE('',*,*,#613,.T.);
#867=ORIENTED_EDGE('',*,*,#609,.F.);
#868=ORIENTED_EDGE('',*,*,#620,.T.);
#869=ORIENTED_EDGE('',*,*,#621,.F.);
#870=ORIENTED_EDGE('',*,*,#623,.F.);
#871=ORIENTED_EDGE('',*,*,#625,.T.);
#872=ORIENTED_EDGE('',*,*,#600,.T.);
#873=ORIENTED_EDGE('',*,*,#594,.F.);
#874=ORIENTED_EDGE('',*,*,#605,.T.);
#875=ORIENTED_EDGE('',*,*,#617,.T.);
#876=ORIENTED_EDGE('',*,*,#541,.F.);
#877=ORIENTED_EDGE('',*,*,#500,.T.);
#878=CYLINDRICAL_SURFACE('',#953,8.82869755775573);
#879=CYLINDRICAL_SURFACE('',#958,5.);
#880=CYLINDRICAL_SURFACE('',#974,13.5599834742559);
#881=CYLINDRICAL_SURFACE('',#983,13.5599834742559);
#882=CYLINDRICAL_SURFACE('',#992,1.75000000000001);
#883=CYLINDRICAL_SURFACE('',#994,1.75000000000001);
#884=CYLINDRICAL_SURFACE('',#996,1.74999999999999);
#885=CYLINDRICAL_SURFACE('',#998,6.00000000000001);
#886=CYLINDRICAL_SURFACE('',#1000,1.74999999999999);
#887=CYLINDRICAL_SURFACE('',#1002,1.75000000000001);
#888=CYLINDRICAL_SURFACE('',#1004,1.75000000000001);
#889=CYLINDRICAL_SURFACE('',#1006,1.74999999999999);
#890=CYLINDRICAL_SURFACE('',#1008,6.00000000000001);
#891=CYLINDRICAL_SURFACE('',#1010,1.74999999999999);
#892=ADVANCED_FACE('',(#73),#878,.F.);
#893=ADVANCED_FACE('',(#74,#15),#40,.F.);
#894=ADVANCED_FACE('',(#75),#879,.F.);
#895=ADVANCED_FACE('',(#76),#41,.F.);
#896=ADVANCED_FACE('',(#77),#42,.F.);
#897=ADVANCED_FACE('',(#78),#43,.F.);
#898=ADVANCED_FACE('',(#79),#44,.F.);
#899=ADVANCED_FACE('',(#80),#45,.T.);
#900=ADVANCED_FACE('',(#81),#46,.T.);
#901=ADVANCED_FACE('',(#82),#47,.F.);
#902=ADVANCED_FACE('',(#83),#48,.F.);
#903=ADVANCED_FACE('',(#84,#16),#49,.F.);
#904=ADVANCED_FACE('',(#85),#50,.F.);
#905=ADVANCED_FACE('',(#86),#51,.T.);
#906=ADVANCED_FACE('',(#87),#52,.T.);
#907=ADVANCED_FACE('',(#88),#53,.T.);
#908=ADVANCED_FACE('',(#89),#54,.T.);
#909=ADVANCED_FACE('',(#90),#880,.F.);
#910=ADVANCED_FACE('',(#91,#17,#18,#19,#20,#21),#55,.T.);
#911=ADVANCED_FACE('',(#92),#881,.F.);
#912=ADVANCED_FACE('',(#93,#22,#23,#24,#25,#26),#56,.F.);
#913=ADVANCED_FACE('',(#94),#882,.F.);
#914=ADVANCED_FACE('',(#95),#883,.F.);
#915=ADVANCED_FACE('',(#96),#884,.F.);
#916=ADVANCED_FACE('',(#97),#885,.F.);
#917=ADVANCED_FACE('',(#98),#886,.F.);
#918=ADVANCED_FACE('',(#99),#887,.F.);
#919=ADVANCED_FACE('',(#100),#888,.F.);
#920=ADVANCED_FACE('',(#101),#889,.F.);
#921=ADVANCED_FACE('',(#102),#890,.F.);
#922=ADVANCED_FACE('',(#103),#891,.F.);
#923=ADVANCED_FACE('',(#104),#57,.T.);
#924=ADVANCED_FACE('',(#105),#58,.T.);
#925=ADVANCED_FACE('',(#106,#27,#28,#29,#30,#31),#59,.T.);
#926=ADVANCED_FACE('',(#107),#60,.T.);
#927=ADVANCED_FACE('',(#108,#32),#61,.T.);
#928=ADVANCED_FACE('',(#109),#62,.T.);
#929=ADVANCED_FACE('',(#110),#63,.T.);
#930=ADVANCED_FACE('',(#111,#33),#64,.T.);
#931=ADVANCED_FACE('',(#112),#65,.T.);
#932=ADVANCED_FACE('',(#113),#66,.T.);
#933=ADVANCED_FACE('',(#114),#67,.T.);
#934=ADVANCED_FACE('',(#115,#34,#35,#36,#37,#38),#68,.T.);
#935=ADVANCED_FACE('',(#116),#69,.T.);
#936=ADVANCED_FACE('',(#117),#70,.T.);
#937=ADVANCED_FACE('',(#118),#71,.T.);
#938=ADVANCED_FACE('',(#119,#39),#72,.F.);
#939=CLOSED_SHELL('',(#892,#893,#894,#895,#896,#897,#898,#899,#900,#901,
#902,#903,#904,#905,#906,#907,#908,#909,#910,#911,#912,#913,#914,#915,#916,
#917,#918,#919,#920,#921,#922,#923,#924,#925,#926,#927,#928,#929,#930,#931,
#932,#933,#934,#935,#936,#937,#938));
#940=DERIVED_UNIT_ELEMENT(#942,1.);
#941=DERIVED_UNIT_ELEMENT(#1541,-3.);
#942=(
MASS_UNIT()
NAMED_UNIT(*)
SI_UNIT(.KILO.,.GRAM.)
);
#943=DERIVED_UNIT((#940,#941));
#944=MEASURE_REPRESENTATION_ITEM('density measure',
POSITIVE_RATIO_MEASURE(7850.),#943);
#945=PROPERTY_DEFINITION_REPRESENTATION(#950,#947);
#946=PROPERTY_DEFINITION_REPRESENTATION(#951,#948);
#947=REPRESENTATION('material name',(#949),#1538);
#948=REPRESENTATION('density',(#944),#1538);
#949=DESCRIPTIVE_REPRESENTATION_ITEM('Steel','Steel');
#950=PROPERTY_DEFINITION('material property','material name',#1548);
#951=PROPERTY_DEFINITION('material property','density of part',#1548);
#952=AXIS2_PLACEMENT_3D('',#1278,#1028,#1029);
#953=AXIS2_PLACEMENT_3D('',#1279,#1030,#1031);
#954=AXIS2_PLACEMENT_3D('',#1281,#1032,#1033);
#955=AXIS2_PLACEMENT_3D('',#1284,#1035,#1036);
#956=AXIS2_PLACEMENT_3D('',#1285,#1037,#1038);
#957=AXIS2_PLACEMENT_3D('',#1287,#1039,#1040);
#958=AXIS2_PLACEMENT_3D('',#1288,#1041,#1042);
#959=AXIS2_PLACEMENT_3D('',#1291,#1044,#1045);
#960=AXIS2_PLACEMENT_3D('',#1292,#1046,#1047);
#961=AXIS2_PLACEMENT_3D('',#1301,#1052,#1053);
#962=AXIS2_PLACEMENT_3D('',#1310,#1058,#1059);
#963=AXIS2_PLACEMENT_3D('',#1316,#1063,#1064);
#964=AXIS2_PLACEMENT_3D('',#1322,#1068,#1069);
#965=AXIS2_PLACEMENT_3D('',#1341,#1080,#1081);
#966=AXIS2_PLACEMENT_3D('',#1348,#1086,#1087);
#967=AXIS2_PLACEMENT_3D('',#1352,#1090,#1091);
#968=AXIS2_PLACEMENT_3D('',#1356,#1094,#1095);
#969=AXIS2_PLACEMENT_3D('',#1358,#1097,#1098);
#970=AXIS2_PLACEMENT_3D('',#1359,#1099,#1100);
#971=AXIS2_PLACEMENT_3D('',#1363,#1103,#1104);
#972=AXIS2_PLACEMENT_3D('',#1371,#1109,#1110);
#973=AXIS2_PLACEMENT_3D('',#1373,#1112,#1113);
#974=AXIS2_PLACEMENT_3D('',#1395,#1125,#1126);
#975=AXIS2_PLACEMENT_3D('',#1397,#1127,#1128);
#976=AXIS2_PLACEMENT_3D('',#1400,#1130,#1131);
#977=AXIS2_PLACEMENT_3D('',#1401,#1132,#1133);
#978=AXIS2_PLACEMENT_3D('',#1403,#1134,#1135);
#979=AXIS2_PLACEMENT_3D('',#1405,#1136,#1137);
#980=AXIS2_PLACEMENT_3D('',#1407,#1138,#1139);
#981=AXIS2_PLACEMENT_3D('',#1409,#1140,#1141);
#982=AXIS2_PLACEMENT_3D('',#1411,#1142,#1143);
#983=AXIS2_PLACEMENT_3D('',#1412,#1144,#1145);
#984=AXIS2_PLACEMENT_3D('',#1414,#1146,#1147);
#985=AXIS2_PLACEMENT_3D('',#1417,#1149,#1150);
#986=AXIS2_PLACEMENT_3D('',#1418,#1151,#1152);
#987=AXIS2_PLACEMENT_3D('',#1420,#1153,#1154);
#988=AXIS2_PLACEMENT_3D('',#1422,#1155,#1156);
#989=AXIS2_PLACEMENT_3D('',#1424,#1157,#1158);
#990=AXIS2_PLACEMENT_3D('',#1426,#1159,#1160);
#991=AXIS2_PLACEMENT_3D('',#1428,#1161,#1162);
#992=AXIS2_PLACEMENT_3D('',#1429,#1163,#1164);
#993=AXIS2_PLACEMENT_3D('',#1431,#1165,#1166);
#994=AXIS2_PLACEMENT_3D('',#1433,#1168,#1169);
#995=AXIS2_PLACEMENT_3D('',#1435,#1170,#1171);
#996=AXIS2_PLACEMENT_3D('',#1437,#1173,#1174);
#997=AXIS2_PLACEMENT_3D('',#1439,#1175,#1176);
#998=AXIS2_PLACEMENT_3D('',#1441,#1178,#1179);
#999=AXIS2_PLACEMENT_3D('',#1443,#1180,#1181);
#1000=AXIS2_PLACEMENT_3D('',#1445,#1183,#1184);
#1001=AXIS2_PLACEMENT_3D('',#1447,#1185,#1186);
#1002=AXIS2_PLACEMENT_3D('',#1449,#1188,#1189);
#1003=AXIS2_PLACEMENT_3D('',#1451,#1190,#1191);
#1004=AXIS2_PLACEMENT_3D('',#1453,#1193,#1194);
#1005=AXIS2_PLACEMENT_3D('',#1455,#1195,#1196);
#1006=AXIS2_PLACEMENT_3D('',#1457,#1198,#1199);
#1007=AXIS2_PLACEMENT_3D('',#1459,#1200,#1201);
#1008=AXIS2_PLACEMENT_3D('',#1461,#1203,#1204);
#1009=AXIS2_PLACEMENT_3D('',#1463,#1205,#1206);
#1010=AXIS2_PLACEMENT_3D('',#1465,#1208,#1209);
#1011=AXIS2_PLACEMENT_3D('',#1467,#1210,#1211);
#1012=AXIS2_PLACEMENT_3D('',#1469,#1213,#1214);
#1013=AXIS2_PLACEMENT_3D('',#1478,#1219,#1220);
#1014=AXIS2_PLACEMENT_3D('',#1484,#1224,#1225);
#1015=AXIS2_PLACEMENT_3D('',#1489,#1229,#1230);
#1016=AXIS2_PLACEMENT_3D('',#1491,#1232,#1233);
#1017=AXIS2_PLACEMENT_3D('',#1495,#1236,#1237);
#1018=AXIS2_PLACEMENT_3D('',#1504,#1242,#1243);
#1019=AXIS2_PLACEMENT_3D('',#1510,#1247,#1248);
#1020=AXIS2_PLACEMENT_3D('',#1515,#1252,#1253);
#1021=AXIS2_PLACEMENT_3D('',#1517,#1255,#1256);
#1022=AXIS2_PLACEMENT_3D('',#1519,#1258,#1259);
#1023=AXIS2_PLACEMENT_3D('',#1521,#1261,#1262);
#1024=AXIS2_PLACEMENT_3D('',#1525,#1265,#1266);
#1025=AXIS2_PLACEMENT_3D('',#1529,#1269,#1270);
#1026=AXIS2_PLACEMENT_3D('',#1533,#1273,#1274);
#1027=AXIS2_PLACEMENT_3D('',#1535,#1276,#1277);
#1028=DIRECTION('axis',(0.,0.,1.));
#1029=DIRECTION('refdir',(1.,0.,0.));
#1030=DIRECTION('center_axis',(0.,0.,1.));
#1031=DIRECTION('ref_axis',(1.,0.,0.));
#1032=DIRECTION('center_axis',(0.,0.,1.));
#1033=DIRECTION('ref_axis',(1.,0.,0.));
#1034=DIRECTION('',(0.,0.,1.));
#1035=DIRECTION('center_axis',(0.,0.,1.));
#1036=DIRECTION('ref_axis',(1.,0.,0.));
#1037=DIRECTION('center_axis',(0.,0.,1.));
#1038=DIRECTION('ref_axis',(1.,0.,0.));
#1039=DIRECTION('center_axis',(0.,0.,-1.));
#1040=DIRECTION('ref_axis',(1.,0.,0.));
#1041=DIRECTION('center_axis',(0.,0.,1.));
#1042=DIRECTION('ref_axis',(1.,0.,0.));
#1043=DIRECTION('',(0.,0.,1.));
#1044=DIRECTION('center_axis',(0.,0.,-1.));
#1045=DIRECTION('ref_axis',(1.,0.,0.));
#1046=DIRECTION('center_axis',(0.,0.,1.));
#1047=DIRECTION('ref_axis',(0.,-1.,0.));
#1048=DIRECTION('',(-1.,0.,0.));
#1049=DIRECTION('',(0.,-1.,0.));
#1050=DIRECTION('',(1.,0.,0.));
#1051=DIRECTION('',(0.,-1.,0.));
#1052=DIRECTION('center_axis',(0.,0.,-1.));
#1053=DIRECTION('ref_axis',(0.,1.,0.));
#1054=DIRECTION('',(1.,0.,0.));
#1055=DIRECTION('',(0.,1.,0.));
#1056=DIRECTION('',(-1.,0.,0.));
#1057=DIRECTION('',(0.,1.,0.));
#1058=DIRECTION('center_axis',(0.,-1.,0.));
#1059=DIRECTION('ref_axis',(0.,0.,-1.));
#1060=DIRECTION('',(0.,0.,-1.));
#1061=DIRECTION('',(1.,0.,0.));
#1062=DIRECTION('',(0.,0.,-1.));
#1063=DIRECTION('center_axis',(0.,-1.,0.));
#1064=DIRECTION('ref_axis',(0.,0.,-1.));
#1065=DIRECTION('',(0.,0.,-1.));
#1066=DIRECTION('',(1.,0.,0.));
#1067=DIRECTION('',(0.,0.,-1.));
#1068=DIRECTION('center_axis',(-1.,0.,0.));
#1069=DIRECTION('ref_axis',(0.,-1.,0.));
#1070=DIRECTION('',(0.,0.,1.));
#1071=DIRECTION('',(0.,-0.707106781186548,-0.707106781186547));
#1072=DIRECTION('',(0.,-1.,0.));
#1073=DIRECTION('',(0.,0.,1.));
#1074=DIRECTION('',(0.,-1.,0.));
#1075=DIRECTION('',(0.,0.707106781186547,-0.707106781186548));
#1076=DIRECTION('',(0.,0.,1.));
#1077=DIRECTION('',(0.,1.,0.));
#1078=DIRECTION('',(0.,0.,1.));
#1079=DIRECTION('',(0.,-1.,0.));
#1080=DIRECTION('center_axis',(0.,-1.,0.));
#1081=DIRECTION('ref_axis',(1.,0.,0.));
#1082=DIRECTION('',(0.,0.,-1.));
#1083=DIRECTION('',(-1.,0.,0.));
#1084=DIRECTION('',(0.,0.,1.));
#1085=DIRECTION('',(1.,0.,0.));
#1086=DIRECTION('center_axis',(0.,0.,1.));
#1087=DIRECTION('ref_axis',(0.,-1.,0.));
#1088=DIRECTION('',(1.,0.,0.));
#1089=DIRECTION('',(0.,-1.,0.));
#1090=DIRECTION('center_axis',(0.,1.,0.));
#1091=DIRECTION('ref_axis',(0.,0.,1.));
#1092=DIRECTION('',(1.,0.,0.));
#1093=DIRECTION('',(0.,0.,1.));
#1094=DIRECTION('center_axis',(0.,0.,-1.));
#1095=DIRECTION('ref_axis',(0.,1.,0.));
#1096=DIRECTION('',(0.,1.,0.));
#1097=DIRECTION('center_axis',(1.,0.,0.));
#1098=DIRECTION('ref_axis',(0.,0.,-1.));
#1099=DIRECTION('center_axis',(0.,-0.707106781186548,-0.707106781186547));
#1100=DIRECTION('ref_axis',(-1.,0.,0.));
#1101=DIRECTION('',(0.,-0.707106781186547,0.707106781186548));
#1102=DIRECTION('',(1.,0.,0.));
#1103=DIRECTION('center_axis',(1.,0.,0.));
#1104=DIRECTION('ref_axis',(0.,1.,0.));
#1105=DIRECTION('',(0.,1.,0.));
#1106=DIRECTION('',(0.,0.,1.));
#1107=DIRECTION('',(0.,1.,0.));
#1108=DIRECTION('',(0.,0.707106781186548,0.707106781186547));
#1109=DIRECTION('center_axis',(0.,-0.707106781186547,0.707106781186548));
#1110=DIRECTION('ref_axis',(1.,0.,0.));
#1111=DIRECTION('',(-1.,0.,0.));
#1112=DIRECTION('center_axis',(0.,0.,1.));
#1113=DIRECTION('ref_axis',(1.,0.,0.));
#1114=DIRECTION('',(0.707106781186547,0.707106781186547,0.));
#1115=DIRECTION('',(0.,1.,0.));
#1116=DIRECTION('',(1.,0.,0.));
#1117=DIRECTION('',(0.,-1.,0.));
#1118=DIRECTION('',(-0.707106781186548,-0.707106781186548,0.));
#1119=DIRECTION('',(-1.,0.,0.));
#1120=DIRECTION('',(-0.707106781186548,0.707106781186548,0.));
#1121=DIRECTION('',(0.,1.,0.));
#1122=DIRECTION('',(1.,0.,0.));
#1123=DIRECTION('',(0.,-1.,0.));
#1124=DIRECTION('',(0.707106781186547,-0.707106781186547,0.));
#1125=DIRECTION('center_axis',(-1.,0.,0.));
#1126=DIRECTION('ref_axis',(0.,1.,0.));
#1127=DIRECTION('center_axis',(-1.,0.,0.));
#1128=DIRECTION('ref_axis',(0.,1.,0.));
#1129=DIRECTION('',(-1.,0.,0.));
#1130=DIRECTION('center_axis',(-1.,0.,0.));
#1131=DIRECTION('ref_axis',(0.,1.,0.));
#1132=DIRECTION('center_axis',(1.,0.,0.));
#1133=DIRECTION('ref_axis',(0.,1.,0.));
#1134=DIRECTION('center_axis',(1.,0.,0.));
#1135=DIRECTION('ref_axis',(0.,1.,0.));
#1136=DIRECTION('center_axis',(1.,0.,0.));
#1137=DIRECTION('ref_axis',(0.,1.,0.));
#1138=DIRECTION('center_axis',(1.,0.,0.));
#1139=DIRECTION('ref_axis',(0.,1.,0.));
#1140=DIRECTION('center_axis',(1.,0.,0.));
#1141=DIRECTION('ref_axis',(0.,1.,0.));
#1142=DIRECTION('center_axis',(1.,0.,0.));
#1143=DIRECTION('ref_axis',(0.,1.,0.));
#1144=DIRECTION('center_axis',(1.,0.,0.));
#1145=DIRECTION('ref_axis',(0.,1.,0.));
#1146=DIRECTION('center_axis',(1.,0.,0.));
#1147=DIRECTION('ref_axis',(0.,1.,0.));
#1148=DIRECTION('',(1.,0.,0.));
#1149=DIRECTION('center_axis',(1.,0.,0.));
#1150=DIRECTION('ref_axis',(0.,1.,0.));
#1151=DIRECTION('center_axis',(1.,0.,0.));
#1152=DIRECTION('ref_axis',(0.,1.,0.));
#1153=DIRECTION('center_axis',(-1.,0.,0.));
#1154=DIRECTION('ref_axis',(0.,1.,0.));
#1155=DIRECTION('center_axis',(-1.,0.,0.));
#1156=DIRECTION('ref_axis',(0.,1.,0.));
#1157=DIRECTION('center_axis',(-1.,0.,0.));
#1158=DIRECTION('ref_axis',(0.,1.,0.));
#1159=DIRECTION('center_axis',(-1.,0.,0.));
#1160=DIRECTION('ref_axis',(0.,1.,0.));
#1161=DIRECTION('center_axis',(-1.,0.,0.));
#1162=DIRECTION('ref_axis',(0.,1.,0.));
#1163=DIRECTION('center_axis',(-1.,0.,0.));
#1164=DIRECTION('ref_axis',(0.,1.,0.));
#1165=DIRECTION('center_axis',(-1.,0.,0.));
#1166=DIRECTION('ref_axis',(0.,1.,0.));
#1167=DIRECTION('',(-1.,0.,0.));
#1168=DIRECTION('center_axis',(-1.,0.,0.));
#1169=DIRECTION('ref_axis',(0.,1.,0.));
#1170=DIRECTION('center_axis',(-1.,0.,0.));
#1171=DIRECTION('ref_axis',(0.,1.,0.));
#1172=DIRECTION('',(-1.,0.,0.));
#1173=DIRECTION('center_axis',(-1.,0.,0.));
#1174=DIRECTION('ref_axis',(0.,1.,0.));
#1175=DIRECTION('center_axis',(-1.,0.,0.));
#1176=DIRECTION('ref_axis',(0.,1.,0.));
#1177=DIRECTION('',(-1.,0.,0.));
#1178=DIRECTION('center_axis',(-1.,0.,0.));
#1179=DIRECTION('ref_axis',(0.,1.,0.));
#1180=DIRECTION('center_axis',(-1.,0.,0.));
#1181=DIRECTION('ref_axis',(0.,1.,0.));
#1182=DIRECTION('',(-1.,0.,0.));
#1183=DIRECTION('center_axis',(-1.,0.,0.));
#1184=DIRECTION('ref_axis',(0.,1.,0.));
#1185=DIRECTION('center_axis',(-1.,0.,0.));
#1186=DIRECTION('ref_axis',(0.,1.,0.));
#1187=DIRECTION('',(-1.,0.,0.));
#1188=DIRECTION('center_axis',(1.,0.,0.));
#1189=DIRECTION('ref_axis',(0.,1.,0.));
#1190=DIRECTION('center_axis',(1.,0.,0.));
#1191=DIRECTION('ref_axis',(0.,1.,0.));
#1192=DIRECTION('',(1.,0.,0.));
#1193=DIRECTION('center_axis',(1.,0.,0.));
#1194=DIRECTION('ref_axis',(0.,1.,0.));
#1195=DIRECTION('center_axis',(1.,0.,0.));
#1196=DIRECTION('ref_axis',(0.,1.,0.));
#1197=DIRECTION('',(1.,0.,0.));
#1198=DIRECTION('center_axis',(1.,0.,0.));
#1199=DIRECTION('ref_axis',(0.,1.,0.));
#1200=DIRECTION('center_axis',(1.,0.,0.));
#1201=DIRECTION('ref_axis',(0.,1.,0.));
#1202=DIRECTION('',(1.,0.,0.));
#1203=DIRECTION('center_axis',(1.,0.,0.));
#1204=DIRECTION('ref_axis',(0.,1.,0.));
#1205=DIRECTION('center_axis',(1.,0.,0.));
#1206=DIRECTION('ref_axis',(0.,1.,0.));
#1207=DIRECTION('',(1.,0.,0.));
#1208=DIRECTION('center_axis',(1.,0.,0.));
#1209=DIRECTION('ref_axis',(0.,1.,0.));
#1210=DIRECTION('center_axis',(1.,0.,0.));
#1211=DIRECTION('ref_axis',(0.,1.,0.));
#1212=DIRECTION('',(1.,0.,0.));
#1213=DIRECTION('center_axis',(0.,0.707106781186547,-0.707106781186548));
#1214=DIRECTION('ref_axis',(-1.,0.,0.));
#1215=DIRECTION('',(0.,-0.707106781186548,-0.707106781186547));
#1216=DIRECTION('',(-1.,0.,0.));
#1217=DIRECTION('',(0.,0.707106781186548,0.707106781186547));
#1218=DIRECTION('',(1.,0.,0.));
#1219=DIRECTION('center_axis',(0.,1.,0.));
#1220=DIRECTION('ref_axis',(-1.,0.,0.));
#1221=DIRECTION('',(0.,0.,1.));
#1222=DIRECTION('',(-1.,0.,0.));
#1223=DIRECTION('',(0.,0.,1.));
#1224=DIRECTION('center_axis',(-1.,0.,0.));
#1225=DIRECTION('ref_axis',(0.,-1.,0.));
#1226=DIRECTION('',(0.,1.,0.));
#1227=DIRECTION('',(0.,0.,1.));
#1228=DIRECTION('',(0.,-0.707106781186548,0.707106781186547));
#1229=DIRECTION('center_axis',(0.,0.707106781186547,0.707106781186548));
#1230=DIRECTION('ref_axis',(1.,0.,0.));
#1231=DIRECTION('',(0.,0.707106781186548,-0.707106781186547));
#1232=DIRECTION('center_axis',(1.,0.,0.));
#1233=DIRECTION('ref_axis',(0.,1.,0.));
#1234=DIRECTION('',(0.,0.,1.));
#1235=DIRECTION('',(0.,-1.,0.));
#1236=DIRECTION('center_axis',(0.,0.707106781186547,-0.707106781186548));
#1237=DIRECTION('ref_axis',(-1.,0.,0.));
#1238=DIRECTION('',(0.,0.707106781186548,0.707106781186547));
#1239=DIRECTION('',(1.,0.,0.));
#1240=DIRECTION('',(0.,-0.707106781186548,-0.707106781186547));
#1241=DIRECTION('',(-1.,0.,0.));
#1242=DIRECTION('center_axis',(0.,1.,0.));
#1243=DIRECTION('ref_axis',(-1.,0.,0.));
#1244=DIRECTION('',(0.,0.,1.));
#1245=DIRECTION('',(-1.,0.,0.));
#1246=DIRECTION('',(0.,0.,1.));
#1247=DIRECTION('center_axis',(-1.,0.,0.));
#1248=DIRECTION('ref_axis',(0.,-1.,0.));
#1249=DIRECTION('',(0.,1.,0.));
#1250=DIRECTION('',(0.,0.,1.));
#1251=DIRECTION('',(0.,-0.707106781186548,0.707106781186547));
#1252=DIRECTION('center_axis',(0.,0.707106781186547,0.707106781186548));
#1253=DIRECTION('ref_axis',(1.,0.,0.));
#1254=DIRECTION('',(0.,0.707106781186548,-0.707106781186547));
#1255=DIRECTION('center_axis',(0.707106781186548,-0.707106781186548,0.));
#1256=DIRECTION('ref_axis',(0.707106781186548,0.707106781186548,0.));
#1257=DIRECTION('',(-0.707106781186547,-0.707106781186547,0.));
#1258=DIRECTION('center_axis',(-0.707106781186548,-0.707106781186548,0.));
#1259=DIRECTION('ref_axis',(0.707106781186548,-0.707106781186548,0.));
#1260=DIRECTION('',(0.707106781186547,-0.707106781186547,0.));
#1261=DIRECTION('center_axis',(1.,0.,0.));
#1262=DIRECTION('ref_axis',(0.,1.,0.));
#1263=DIRECTION('',(0.,0.,1.));
#1264=DIRECTION('',(0.,-1.,0.));
#1265=DIRECTION('center_axis',(0.707106781186548,0.707106781186548,0.));
#1266=DIRECTION('ref_axis',(-0.707106781186548,0.707106781186548,0.));
#1267=DIRECTION('',(-0.707106781186548,0.707106781186548,0.));
#1268=DIRECTION('',(0.,0.,1.));
#1269=DIRECTION('center_axis',(0.,1.,0.));
#1270=DIRECTION('ref_axis',(-1.,0.,0.));
#1271=DIRECTION('',(-1.,0.,0.));
#1272=DIRECTION('',(0.,0.,1.));
#1273=DIRECTION('center_axis',(-0.707106781186548,0.707106781186548,0.));
#1274=DIRECTION('ref_axis',(-0.707106781186548,-0.707106781186548,0.));
#1275=DIRECTION('',(0.707106781186548,0.707106781186548,0.));
#1276=DIRECTION('center_axis',(0.,0.,1.));
#1277=DIRECTION('ref_axis',(1.,0.,0.));
#1278=CARTESIAN_POINT('',(0.,0.,0.));
#1279=CARTESIAN_POINT('Origin',(14.7142352630515,20.7575818889476,0.));
#1280=CARTESIAN_POINT('',(5.88553770529573,20.7575818889476,0.));
#1281=CARTESIAN_POINT('Origin',(14.7142352630515,20.7575818889476,0.));
#1282=CARTESIAN_POINT('',(5.88553770529573,20.7575818889476,3.));
#1283=CARTESIAN_POINT('',(5.88553770529573,20.7575818889476,0.));
#1284=CARTESIAN_POINT('Origin',(14.7142352630515,20.7575818889476,3.));
#1285=CARTESIAN_POINT('Origin',(14.7142352630515,20.7575818889476,3.));
#1286=CARTESIAN_POINT('',(10.1644318291393,21.2899370716857,3.));
#1287=CARTESIAN_POINT('Origin',(15.1644318291393,21.2899370716857,3.));
#1288=CARTESIAN_POINT('Origin',(15.1644318291393,21.2899370716857,0.));
#1289=CARTESIAN_POINT('',(10.1644318291393,21.2899370716857,3.41580461463694));
#1290=CARTESIAN_POINT('',(10.1644318291393,21.2899370716857,0.));
#1291=CARTESIAN_POINT('Origin',(15.1644318291393,21.2899370716857,3.41580461463694));
#1292=CARTESIAN_POINT('Origin',(0.,20.,20.));
#1293=CARTESIAN_POINT('',(30.,9.72190544165899,20.));
#1294=CARTESIAN_POINT('',(0.,9.72190544165899,20.));
#1295=CARTESIAN_POINT('',(0.,9.72190544165899,20.));
#1296=CARTESIAN_POINT('',(30.,0.,20.));
#1297=CARTESIAN_POINT('',(30.,20.,20.));
#1298=CARTESIAN_POINT('',(0.,0.,20.));
#1299=CARTESIAN_POINT('',(0.,0.,20.));
#1300=CARTESIAN_POINT('',(0.,37.5,20.));
#1301=CARTESIAN_POINT('Origin',(0.,-10.,10.));
#1302=CARTESIAN_POINT('',(0.,9.72190544165899,10.));
#1303=CARTESIAN_POINT('',(30.,9.72190544165899,10.));
#1304=CARTESIAN_POINT('',(0.,9.72190544165899,10.));
#1305=CARTESIAN_POINT('',(0.,0.,10.));
#1306=CARTESIAN_POINT('',(0.,22.5,10.));
#1307=CARTESIAN_POINT('',(30.,0.,10.));
#1308=CARTESIAN_POINT('',(0.,0.,10.));
#1309=CARTESIAN_POINT('',(30.,-10.,10.));
#1310=CARTESIAN_POINT('Origin',(0.,9.72190544165899,25.7499117103401));
#1311=CARTESIAN_POINT('',(30.,9.72190544165899,3.41580461463694));
#1312=CARTESIAN_POINT('',(30.,9.72190544165899,3.41580461463694));
#1313=CARTESIAN_POINT('',(0.,9.72190544165899,3.41580461463694));
#1314=CARTESIAN_POINT('',(0.,9.72190544165899,3.41580461463694));
#1315=CARTESIAN_POINT('',(0.,9.72190544165899,12.87495585517));
#1316=CARTESIAN_POINT('Origin',(0.,9.72190544165899,25.7499117103401));
#1317=CARTESIAN_POINT('',(0.,9.72190544165899,25.7499117103401));
#1318=CARTESIAN_POINT('',(0.,9.72190544165899,12.87495585517));
#1319=CARTESIAN_POINT('',(30.,9.72190544165899,25.7499117103401));
#1320=CARTESIAN_POINT('',(0.,9.72190544165899,25.7499117103401));
#1321=CARTESIAN_POINT('',(30.,9.72190544165899,3.41580461463694));
#1322=CARTESIAN_POINT('Origin',(0.,55.,0.));
#1323=CARTESIAN_POINT('',(0.,0.,22.));
#1324=CARTESIAN_POINT('',(0.,0.,0.));
#1325=CARTESIAN_POINT('',(0.,8.00000000000001,30.));
#1326=CARTESIAN_POINT('',(0.,10.25,32.25));
#1327=CARTESIAN_POINT('',(0.,55.,30.));
#1328=CARTESIAN_POINT('',(0.,60.,30.));
#1329=CARTESIAN_POINT('',(0.,55.,0.));
#1330=CARTESIAN_POINT('',(0.,55.,0.));
#1331=CARTESIAN_POINT('',(0.,8.,0.));
#1332=CARTESIAN_POINT('',(0.,60.,0.));
#1333=CARTESIAN_POINT('',(0.,0.,8.));
#1334=CARTESIAN_POINT('',(-5.55111512312578E-16,17.75,-9.75));
#1335=CARTESIAN_POINT('',(0.,0.,0.));
#1336=CARTESIAN_POINT('',(0.,50.9743150184283,3.41580461463694));
#1337=CARTESIAN_POINT('',(0.,32.3609527208295,3.41580461463694));
#1338=CARTESIAN_POINT('',(0.,50.9743150184283,25.7499117103401));
#1339=CARTESIAN_POINT('',(0.,50.9743150184283,1.70790230731847));
#1340=CARTESIAN_POINT('',(0.,52.9871575092142,25.7499117103401));
#1341=CARTESIAN_POINT('Origin',(0.,0.,0.));
#1342=CARTESIAN_POINT('',(30.,0.,7.5));
#1343=CARTESIAN_POINT('',(35.,0.,8.));
#1344=CARTESIAN_POINT('',(8.75,0.,8.));
#1345=CARTESIAN_POINT('',(35.,0.,22.));
#1346=CARTESIAN_POINT('',(35.,0.,0.));
#1347=CARTESIAN_POINT('',(8.75,0.,22.));
#1348=CARTESIAN_POINT('Origin',(0.,50.9743150184283,25.7499117103401));
#1349=CARTESIAN_POINT('',(30.,50.9743150184283,25.7499117103401));
#1350=CARTESIAN_POINT('',(0.,50.9743150184283,25.7499117103401));
#1351=CARTESIAN_POINT('',(30.,9.72190544165899,25.7499117103401));
#1352=CARTESIAN_POINT('Origin',(0.,50.9743150184283,3.41580461463694));
#1353=CARTESIAN_POINT('',(30.,50.9743150184283,3.41580461463694));
#1354=CARTESIAN_POINT('',(0.,50.9743150184283,3.41580461463694));
#1355=CARTESIAN_POINT('',(30.,50.9743150184283,25.7499117103401));
#1356=CARTESIAN_POINT('Origin',(0.,9.72190544165899,3.41580461463694));
#1357=CARTESIAN_POINT('',(30.,50.9743150184283,3.41580461463694));
#1358=CARTESIAN_POINT('Origin',(30.,30.3481102300437,14.5828581624885));
#1359=CARTESIAN_POINT('Origin',(8.75,4.,4.));
#1360=CARTESIAN_POINT('',(35.,8.,0.));
#1361=CARTESIAN_POINT('',(35.,4.,4.));
#1362=CARTESIAN_POINT('',(8.75,8.,0.));
#1363=CARTESIAN_POINT('Origin',(35.,0.,0.));
#1364=CARTESIAN_POINT('',(35.,55.,0.));
#1365=CARTESIAN_POINT('',(35.,0.,0.));
#1366=CARTESIAN_POINT('',(35.,55.,30.));
#1367=CARTESIAN_POINT('',(35.,55.,0.));
#1368=CARTESIAN_POINT('',(35.,8.,30.));
#1369=CARTESIAN_POINT('',(35.,0.,30.));
#1370=CARTESIAN_POINT('',(35.,-3.5,18.5));
#1371=CARTESIAN_POINT('Origin',(8.75,4.,26.));
#1372=CARTESIAN_POINT('',(8.75,8.,30.));
#1373=CARTESIAN_POINT('Origin',(17.5,60.,30.));
#1374=CARTESIAN_POINT('',(55.,75.,30.));
#1375=CARTESIAN_POINT('',(55.,75.,30.));
#1376=CARTESIAN_POINT('',(55.,112.,30.));
#1377=CARTESIAN_POINT('',(55.,120.,30.));
#1378=CARTESIAN_POINT('',(50.,112.,30.));
#1379=CARTESIAN_POINT('',(36.25,112.,30.));
#1380=CARTESIAN_POINT('',(50.,75.,30.));
#1381=CARTESIAN_POINT('',(50.,75.,30.));
#1382=CARTESIAN_POINT('',(35.,60.,30.));
#1383=CARTESIAN_POINT('',(35.,60.,30.));
#1384=CARTESIAN_POINT('',(0.,60.,30.));
#1385=CARTESIAN_POINT('',(35.,60.,30.));
#1386=CARTESIAN_POINT('',(-15.,75.,30.));
#1387=CARTESIAN_POINT('',(0.,60.,30.));
#1388=CARTESIAN_POINT('',(-15.,112.,30.));
#1389=CARTESIAN_POINT('',(-15.,120.,30.));
#1390=CARTESIAN_POINT('',(-20.,112.,30.));
#1391=CARTESIAN_POINT('',(1.25,112.,30.));
#1392=CARTESIAN_POINT('',(-20.,75.,30.));
#1393=CARTESIAN_POINT('',(-20.,75.,30.));
#1394=CARTESIAN_POINT('',(-20.,75.,30.));
#1395=CARTESIAN_POINT('Origin',(55.,105.,15.));
#1396=CARTESIAN_POINT('',(55.,91.4400165257441,15.));
#1397=CARTESIAN_POINT('Origin',(55.,105.,15.));
#1398=CARTESIAN_POINT('',(52.,91.4400165257441,15.));
#1399=CARTESIAN_POINT('',(55.,91.4400165257441,15.));
#1400=CARTESIAN_POINT('Origin',(52.,105.,15.));
#1401=CARTESIAN_POINT('Origin',(52.,105.,15.));
#1402=CARTESIAN_POINT('',(52.,113.25,15.));
#1403=CARTESIAN_POINT('Origin',(52.,115.,15.));
#1404=CARTESIAN_POINT('',(52.,99.,15.));
#1405=CARTESIAN_POINT('Origin',(52.,105.,15.));
#1406=CARTESIAN_POINT('',(52.,103.25,25.));
#1407=CARTESIAN_POINT('Origin',(52.,105.,25.));
#1408=CARTESIAN_POINT('',(52.,93.25,15.));
#1409=CARTESIAN_POINT('Origin',(52.,95.,15.));
#1410=CARTESIAN_POINT('',(52.,103.25,5.));
#1411=CARTESIAN_POINT('Origin',(52.,105.,5.));
#1412=CARTESIAN_POINT('Origin',(-25.,105.,15.));
#1413=CARTESIAN_POINT('',(-20.,91.4400165257441,15.));
#1414=CARTESIAN_POINT('Origin',(-20.,105.,15.));
#1415=CARTESIAN_POINT('',(-18.,91.4400165257441,15.));
#1416=CARTESIAN_POINT('',(-25.,91.4400165257441,15.));
#1417=CARTESIAN_POINT('Origin',(-18.,105.,15.));
#1418=CARTESIAN_POINT('Origin',(-18.,105.,15.));
#1419=CARTESIAN_POINT('',(-18.,113.25,15.));
#1420=CARTESIAN_POINT('Origin',(-18.,115.,15.));
#1421=CARTESIAN_POINT('',(-18.,99.,15.));
#1422=CARTESIAN_POINT('Origin',(-18.,105.,15.));
#1423=CARTESIAN_POINT('',(-18.,103.25,25.));
#1424=CARTESIAN_POINT('Origin',(-18.,105.,25.));
#1425=CARTESIAN_POINT('',(-18.,93.25,15.));
#1426=CARTESIAN_POINT('Origin',(-18.,95.,15.));
#1427=CARTESIAN_POINT('',(-18.,103.25,5.));
#1428=CARTESIAN_POINT('Origin',(-18.,105.,5.));
#1429=CARTESIAN_POINT('Origin',(0.,105.,5.));
#1430=CARTESIAN_POINT('',(-15.,103.25,5.));
#1431=CARTESIAN_POINT('Origin',(-15.,105.,5.));
#1432=CARTESIAN_POINT('',(0.,103.25,5.));
#1433=CARTESIAN_POINT('Origin',(0.,95.,15.));
#1434=CARTESIAN_POINT('',(-15.,93.25,15.));
#1435=CARTESIAN_POINT('Origin',(-15.,95.,15.));
#1436=CARTESIAN_POINT('',(0.,93.25,15.));
#1437=CARTESIAN_POINT('Origin',(0.,105.,25.));
#1438=CARTESIAN_POINT('',(-15.,103.25,25.));
#1439=CARTESIAN_POINT('Origin',(-15.,105.,25.));
#1440=CARTESIAN_POINT('',(0.,103.25,25.));
#1441=CARTESIAN_POINT('Origin',(0.,105.,15.));
#1442=CARTESIAN_POINT('',(-15.,99.,15.));
#1443=CARTESIAN_POINT('Origin',(-15.,105.,15.));
#1444=CARTESIAN_POINT('',(0.,99.,15.));
#1445=CARTESIAN_POINT('Origin',(0.,115.,15.));
#1446=CARTESIAN_POINT('',(-15.,113.25,15.));
#1447=CARTESIAN_POINT('Origin',(-15.,115.,15.));
#1448=CARTESIAN_POINT('',(0.,113.25,15.));
#1449=CARTESIAN_POINT('Origin',(0.,105.,5.));
#1450=CARTESIAN_POINT('',(50.,103.25,5.));
#1451=CARTESIAN_POINT('Origin',(50.,105.,5.));
#1452=CARTESIAN_POINT('',(0.,103.25,5.));
#1453=CARTESIAN_POINT('Origin',(0.,95.,15.));
#1454=CARTESIAN_POINT('',(50.,93.25,15.));
#1455=CARTESIAN_POINT('Origin',(50.,95.,15.));
#1456=CARTESIAN_POINT('',(0.,93.25,15.));
#1457=CARTESIAN_POINT('Origin',(0.,105.,25.));
#1458=CARTESIAN_POINT('',(50.,103.25,25.));
#1459=CARTESIAN_POINT('Origin',(50.,105.,25.));
#1460=CARTESIAN_POINT('',(0.,103.25,25.));
#1461=CARTESIAN_POINT('Origin',(0.,105.,15.));
#1462=CARTESIAN_POINT('',(50.,99.,15.));
#1463=CARTESIAN_POINT('Origin',(50.,105.,15.));
#1464=CARTESIAN_POINT('',(0.,99.,15.));
#1465=CARTESIAN_POINT('Origin',(0.,115.,15.));
#1466=CARTESIAN_POINT('',(50.,113.25,15.));
#1467=CARTESIAN_POINT('Origin',(50.,115.,15.));
#1468=CARTESIAN_POINT('',(0.,113.25,15.));
#1469=CARTESIAN_POINT('Origin',(36.25,116.,4.));
#1470=CARTESIAN_POINT('',(55.,120.,8.));
#1471=CARTESIAN_POINT('',(55.,112.,0.));
#1472=CARTESIAN_POINT('',(55.,104.75,-7.25));
#1473=CARTESIAN_POINT('',(50.,112.,0.));
#1474=CARTESIAN_POINT('',(36.25,112.,0.));
#1475=CARTESIAN_POINT('',(50.,120.,8.));
#1476=CARTESIAN_POINT('',(50.,116.,4.));
#1477=CARTESIAN_POINT('',(36.25,120.,8.));
#1478=CARTESIAN_POINT('Origin',(55.,120.,0.));
#1479=CARTESIAN_POINT('',(50.,120.,22.));
#1480=CARTESIAN_POINT('',(50.,120.,0.));
#1481=CARTESIAN_POINT('',(55.,120.,22.));
#1482=CARTESIAN_POINT('',(36.25,120.,22.));
#1483=CARTESIAN_POINT('',(55.,120.,0.));
#1484=CARTESIAN_POINT('Origin',(50.,120.,0.));
#1485=CARTESIAN_POINT('',(50.,75.,0.));
#1486=CARTESIAN_POINT('',(50.,75.,0.));
#1487=CARTESIAN_POINT('',(50.,75.,0.));
#1488=CARTESIAN_POINT('',(50.,123.5,18.5));
#1489=CARTESIAN_POINT('Origin',(36.25,116.,26.));
#1490=CARTESIAN_POINT('',(55.,112.25,29.75));
#1491=CARTESIAN_POINT('Origin',(55.,75.,0.));
#1492=CARTESIAN_POINT('',(55.,75.,0.));
#1493=CARTESIAN_POINT('',(55.,75.,0.));
#1494=CARTESIAN_POINT('',(55.,120.,0.));
#1495=CARTESIAN_POINT('Origin',(1.25,116.,4.));
#1496=CARTESIAN_POINT('',(-20.,112.,0.));
#1497=CARTESIAN_POINT('',(-20.,120.,8.));
#1498=CARTESIAN_POINT('',(-20.,116.,4.));
#1499=CARTESIAN_POINT('',(-15.,120.,8.));
#1500=CARTESIAN_POINT('',(1.25,120.,8.));
#1501=CARTESIAN_POINT('',(-15.,112.,0.));
#1502=CARTESIAN_POINT('',(-15.,104.75,-7.25));
#1503=CARTESIAN_POINT('',(1.25,112.,0.));
#1504=CARTESIAN_POINT('Origin',(-15.,120.,0.));
#1505=CARTESIAN_POINT('',(-20.,120.,22.));
#1506=CARTESIAN_POINT('',(-20.,120.,0.));
#1507=CARTESIAN_POINT('',(-15.,120.,22.));
#1508=CARTESIAN_POINT('',(1.25,120.,22.));
#1509=CARTESIAN_POINT('',(-15.,120.,0.));
#1510=CARTESIAN_POINT('Origin',(-20.,120.,0.));
#1511=CARTESIAN_POINT('',(-20.,75.,0.));
#1512=CARTESIAN_POINT('',(-20.,75.,0.));
#1513=CARTESIAN_POINT('',(-20.,75.,0.));
#1514=CARTESIAN_POINT('',(-20.,123.5,18.5));
#1515=CARTESIAN_POINT('Origin',(1.25,116.,26.));
#1516=CARTESIAN_POINT('',(-15.,112.25,29.75));
#1517=CARTESIAN_POINT('Origin',(35.,55.,0.));
#1518=CARTESIAN_POINT('',(55.,75.,0.));
#1519=CARTESIAN_POINT('Origin',(-20.,75.,0.));
#1520=CARTESIAN_POINT('',(-20.,75.,0.));
#1521=CARTESIAN_POINT('Origin',(-15.,75.,0.));
#1522=CARTESIAN_POINT('',(-15.,75.,0.));
#1523=CARTESIAN_POINT('',(-15.,75.,0.));
#1524=CARTESIAN_POINT('',(-15.,120.,0.));
#1525=CARTESIAN_POINT('Origin',(0.,60.,0.));
#1526=CARTESIAN_POINT('',(0.,60.,0.));
#1527=CARTESIAN_POINT('',(0.,60.,0.));
#1528=CARTESIAN_POINT('',(0.,60.,0.));
#1529=CARTESIAN_POINT('Origin',(35.,60.,0.));
#1530=CARTESIAN_POINT('',(35.,60.,0.));
#1531=CARTESIAN_POINT('',(35.,60.,0.));
#1532=CARTESIAN_POINT('',(35.,60.,0.));
#1533=CARTESIAN_POINT('Origin',(50.,75.,0.));
#1534=CARTESIAN_POINT('',(35.,60.,0.));
#1535=CARTESIAN_POINT('Origin',(17.5,60.,0.));
#1536=UNCERTAINTY_MEASURE_WITH_UNIT(LENGTH_MEASURE(0.01),#1540,
'DISTANCE_ACCURACY_VALUE',
'Maximum model space distance between geometric entities at asserted c
onnectivities');
#1537=UNCERTAINTY_MEASURE_WITH_UNIT(LENGTH_MEASURE(0.01),#1540,
'DISTANCE_ACCURACY_VALUE',
'Maximum model space distance between geometric entities at asserted c
onnectivities');
#1538=(
GEOMETRIC_REPRESENTATION_CONTEXT(3)
GLOBAL_UNCERTAINTY_ASSIGNED_CONTEXT((#1536))
GLOBAL_UNIT_ASSIGNED_CONTEXT((#1540,#1542,#1543))
REPRESENTATION_CONTEXT('','3D')
);
#1539=(
GEOMETRIC_REPRESENTATION_CONTEXT(3)
GLOBAL_UNCERTAINTY_ASSIGNED_CONTEXT((#1537))
GLOBAL_UNIT_ASSIGNED_CONTEXT((#1540,#1542,#1543))
REPRESENTATION_CONTEXT('','3D')
);
#1540=(
LENGTH_UNIT()
NAMED_UNIT(*)
SI_UNIT(.MILLI.,.METRE.)
);
#1541=(
LENGTH_UNIT()
NAMED_UNIT(*)
SI_UNIT($,.METRE.)
);
#1542=(
NAMED_UNIT(*)
PLANE_ANGLE_UNIT()
SI_UNIT($,.RADIAN.)
);
#1543=(
NAMED_UNIT(*)
SI_UNIT($,.STERADIAN.)
SOLID_ANGLE_UNIT()
);
#1544=SHAPE_DEFINITION_REPRESENTATION(#1545,#1546);
#1545=PRODUCT_DEFINITION_SHAPE('',$,#1548);
#1546=SHAPE_REPRESENTATION('',(#952),#1538);
#1547=PRODUCT_DEFINITION_CONTEXT('part definition',#1552,'design');
#1548=PRODUCT_DEFINITION('femur','femur',#1549,#1547);
#1549=PRODUCT_DEFINITION_FORMATION('',$,#1554);
#1550=PRODUCT_RELATED_PRODUCT_CATEGORY('femur','femur',(#1554));
#1551=APPLICATION_PROTOCOL_DEFINITION('international standard',
'automotive_design',2009,#1552);
#1552=APPLICATION_CONTEXT(
'Core Data for Automotive Mechanical Design Process');
#1553=PRODUCT_CONTEXT('part definition',#1552,'mechanical');
#1554=PRODUCT('femur','femur',$,(#1553));
#1555=PRESENTATION_STYLE_ASSIGNMENT((#1556));
#1556=SURFACE_STYLE_USAGE(.BOTH.,#1557);
#1557=SURFACE_SIDE_STYLE('',(#1558));
#1558=SURFACE_STYLE_FILL_AREA(#1559);
#1559=FILL_AREA_STYLE('Steel - Satin',(#1560));
#1560=FILL_AREA_STYLE_COLOUR('Steel - Satin',#1561);
#1561=COLOUR_RGB('Steel - Satin',0.627450980392157,0.627450980392157,0.627450980392157);
ENDSEC;
END-ISO-10303-21;
